<svg width="24" height="24" viewBox="0 0 24 24" fill="none" xmlns="http://www.w3.org/2000/svg">
<path d="M11.0412 2.0504C9.43575 2.06978 5.98427 2.33359 4.05379 4.10466C2.61781 5.52751 2.11643 7.63116 2.05767 10.2324C2.00891 12.8243 1.95014 17.6918 6.64193 19.0171V21.0357C6.64193 21.0357 6.61255 21.8434 7.14643 22.0091C7.8041 22.2173 8.17856 21.5959 8.80372 20.9282L9.96963 19.6098C13.1798 19.8767 15.6385 19.2615 15.9217 19.1703C16.5731 18.9621 20.2422 18.4932 20.8417 13.6251C21.4569 8.59765 20.5423 5.42999 18.8912 3.99713H18.8812C18.383 3.53827 16.3806 2.07915 11.907 2.0629C11.907 2.0629 11.575 2.04039 11.0412 2.04977V2.0504ZM11.0962 3.46387C11.5519 3.46075 11.8288 3.48013 11.8288 3.48013C15.6154 3.49013 17.4227 4.62979 17.8491 5.01363C19.2394 6.20518 19.9559 9.06089 19.4314 13.2582C18.9331 17.3279 15.9574 17.5855 15.4066 17.7612C15.1722 17.8362 13.0066 18.3701 10.2785 18.1944C10.2785 18.1944 8.24671 20.6463 7.61155 21.2777C7.5109 21.3883 7.39337 21.4208 7.31835 21.4046C7.21082 21.3783 7.17832 21.2452 7.18457 21.0626L7.20395 17.7124C3.22483 16.6121 3.45927 12.4605 3.50178 10.2918C3.55054 8.12315 3.95752 6.34896 5.16907 5.14742C6.8001 3.67267 9.73082 3.47387 11.0949 3.46387H11.0962ZM11.3962 5.63191C11.3635 5.63158 11.331 5.63774 11.3006 5.65002C11.2703 5.66231 11.2427 5.68048 11.2193 5.70349C11.196 5.72651 11.1775 5.7539 11.1649 5.78411C11.1522 5.81431 11.1456 5.84672 11.1456 5.87947C11.1456 6.01951 11.2593 6.13016 11.3962 6.13016C12.0161 6.11837 12.6321 6.22941 13.2088 6.45688C13.7856 6.68435 14.3115 7.02374 14.7564 7.45549C15.6648 8.33758 16.1074 9.52288 16.1243 11.0726C16.1243 11.2095 16.2349 11.3233 16.375 11.3233V11.3133C16.441 11.3135 16.5044 11.2876 16.5513 11.2412C16.5983 11.1948 16.625 11.1318 16.6257 11.0658C16.656 10.3363 16.5377 9.60828 16.278 8.92596C16.0182 8.24363 15.6224 7.62125 15.1147 7.09665C14.125 6.12953 12.871 5.63129 11.3962 5.63129V5.63191ZM8.10104 6.20518C7.92409 6.17932 7.74362 6.21484 7.58967 6.30583H7.57654C7.21911 6.51534 6.89713 6.78015 6.62255 7.0904C6.39437 7.35421 6.27059 7.62115 6.23808 7.87809C6.2187 8.03126 6.23183 8.18442 6.27747 8.33071L6.29372 8.34071C6.55066 9.0959 6.88637 9.82233 7.29647 10.5062C7.82474 11.4671 8.47486 12.3557 9.2307 13.15L9.25321 13.1825L9.28884 13.2088L9.31135 13.235L9.3376 13.2576C10.1348 14.0156 11.0256 14.6688 11.9883 15.2012C13.0885 15.8001 13.7562 16.0833 14.1569 16.2008V16.207C14.2745 16.2427 14.3814 16.2589 14.4889 16.2589C14.8304 16.2339 15.1537 16.0953 15.4072 15.8651C15.7161 15.5904 15.9779 15.2671 16.1824 14.908V14.9017C16.3743 14.5404 16.3093 14.1984 16.0324 13.9671C15.4778 13.4823 14.878 13.0517 14.2413 12.6812C13.815 12.4499 13.3817 12.5899 13.2061 12.8243L12.8316 13.2963C12.6397 13.5307 12.2908 13.4982 12.2908 13.4982L12.2808 13.5045C9.67956 12.84 8.98564 10.2062 8.98564 10.2062C8.98564 10.2062 8.95313 9.84796 9.19382 9.66541L9.66268 9.28782C9.88711 9.10527 10.0434 8.67267 9.80272 8.24568C9.43475 7.60812 9.00508 7.00822 8.5199 6.45461C8.41383 6.3241 8.26502 6.2353 8.09979 6.20393L8.10104 6.20518ZM11.8288 6.94786C11.4969 6.94786 11.4969 7.44924 11.832 7.44924C12.2447 7.45593 12.6522 7.54391 13.0309 7.70813C13.4097 7.87236 13.7524 8.10962 14.0394 8.40635C14.3012 8.69518 14.5024 9.03362 14.6311 9.40162C14.7597 9.76963 14.8132 10.1597 14.7883 10.5488C14.7895 10.6146 14.8163 10.6774 14.8632 10.7236C14.9101 10.7699 14.9732 10.796 15.039 10.7963L15.049 10.8094C15.1154 10.809 15.1788 10.7824 15.2257 10.7355C15.2726 10.6886 15.2992 10.6251 15.2997 10.5588C15.3222 9.56539 15.0134 8.73206 14.4076 8.06439C13.7987 7.39672 12.9491 7.02226 11.8645 6.94786H11.8288ZM12.2396 8.2957C11.8976 8.28569 11.8845 8.79707 12.2233 8.80707C13.0473 8.84958 13.4474 9.26594 13.4999 10.1224C13.501 10.1874 13.5276 10.2494 13.5738 10.2951C13.6201 10.3408 13.6824 10.3665 13.7474 10.3668H13.7574C13.7909 10.3654 13.8237 10.3573 13.854 10.3431C13.8842 10.3288 13.9114 10.3087 13.9338 10.2838C13.9562 10.259 13.9734 10.2299 13.9845 10.1983C13.9955 10.1668 14.0002 10.1333 13.9981 10.0999C13.9394 8.98337 13.3305 8.35446 12.2496 8.29632H12.2396V8.2957Z" fill="#6558BA"/>
</svg>
